<?xml version="1.0" standalone="no"?>
<!DOCTYPE svg PUBLIC "-//W3C//DTD SVG 20010904//EN"
 "http://www.w3.org/TR/2001/REC-SVG-20010904/DTD/svg10.dtd">
<svg version="1.0" xmlns="http://www.w3.org/2000/svg"
 width="800.000000pt" height="800.000000pt" viewBox="0 0 800.000000 800.000000"
 preserveAspectRatio="xMidYMid meet">
<metadata>
Created by potrace 1.14, written by Peter Selinger 2001-2017
</metadata>
<g transform="translate(0.000000,800.000000) scale(0.100000,-0.100000)"
fill="#000000" stroke="none">
<path d="M0 4000 l0 -4000 4000 0 4000 0 0 4000 0 4000 -4000 0 -4000 0 0
-4000z m4048 2510 c26 -11 76 -30 112 -43 67 -24 538 -203 1035 -392 391 -148
674 -256 715 -271 19 -7 89 -34 155 -59 66 -26 139 -54 163 -62 24 -8 42 -16
40 -18 -5 -4 -199 -75 -438 -161 -118 -42 -276 -99 -350 -127 -74 -27 -146
-53 -160 -57 -14 -5 -133 -47 -265 -95 -132 -47 -370 -133 -530 -190 -159 -57
-371 -133 -470 -169 -99 -36 -189 -66 -199 -66 -18 0 -129 42 -426 162 -69 28
-153 61 -187 74 -62 23 -555 219 -1190 472 -189 75 -343 139 -343 143 0 3 105
45 233 93 213 81 669 255 777 296 25 10 99 38 165 63 66 25 208 79 315 120
107 41 310 118 450 171 140 53 275 105 300 116 25 10 46 19 48 19 2 1 24 -8
50 -19z m2725 -1320 c92 -165 167 -304 167 -309 0 -10 -43 -29 -165 -75 -135
-50 -510 -193 -775 -296 -129 -50 -269 -104 -310 -120 -160 -60 -551 -210
-660 -253 -276 -108 -510 -197 -517 -197 -10 1 -437 616 -441 636 -2 8 1 14 7
14 6 0 93 30 193 66 101 37 244 88 318 114 74 26 209 75 300 108 177 65 611
220 855 307 83 29 200 71 260 93 61 22 200 72 310 112 110 39 216 77 235 85
19 8 40 14 46 14 6 1 86 -134 177 -299z m-4743 36 c300 -119 608 -242 685
-272 77 -31 228 -91 335 -133 107 -43 284 -113 394 -157 109 -43 200 -83 202
-89 4 -8 -282 -549 -302 -574 -4 -4 -27 4 -299 109 -88 34 -313 120 -500 192
-187 71 -407 156 -490 188 -82 32 -338 131 -569 219 -230 88 -421 163 -424
165 -4 5 27 62 250 463 l80 142 46 -18 c26 -11 292 -116 592 -235z m-334 -920
c770 -289 1385 -521 1504 -566 119 -45 142 -51 191 -47 114 10 130 23 268 225
69 100 126 180 128 179 1 -2 3 -590 3 -1308 0 -1236 -1 -1304 -17 -1303 -10 1
-83 27 -163 59 -80 31 -161 62 -180 70 -32 11 -642 243 -750 285 -25 10 -99
38 -165 63 -66 25 -232 89 -370 142 -328 127 -666 256 -687 262 -17 5 -18 62
-18 1019 0 558 1 1014 3 1014 2 0 116 -42 253 -94z m4652 -922 l-3 -1006 -50
-19 c-70 -27 -299 -115 -570 -219 -126 -48 -295 -113 -375 -144 -80 -32 -179
-70 -220 -86 -140 -53 -514 -198 -750 -290 -129 -50 -270 -104 -312 -120 l-78
-29 0 1367 1 1367 24 -30 c14 -16 66 -91 116 -165 211 -309 246 -355 286 -365
18 -4 90 20 262 89 130 52 306 122 391 155 167 63 286 111 875 347 209 84 386
153 393 153 10 1 12 -203 10 -1005z"/>
</g>
</svg>
