<?xml version="1.0" standalone="no"?>
<!DOCTYPE svg PUBLIC "-//W3C//DTD SVG 20010904//EN"
 "http://www.w3.org/TR/2001/REC-SVG-20010904/DTD/svg10.dtd">
<svg version="1.0" xmlns="http://www.w3.org/2000/svg"
 width="500.000000pt" height="500.000000pt" viewBox="0 0 500.000000 500.000000"
 preserveAspectRatio="xMidYMid meet">
<metadata>
Created by potrace 1.16, written by Peter Selinger 2001-2019
</metadata>
<g transform="translate(0.000000,500.000000) scale(0.100000,-0.100000)"
fill="#000000" stroke="none">
<path d="M1800 4633 c-14 -3 -58 -20 -98 -39 -130 -59 -229 -181 -267 -329
-55 -216 55 -449 261 -550 139 -68 291 -68 431 0 171 83 273 245 273 437 0
220 -150 419 -355 472 -55 15 -187 19 -245 9z"/>
<path d="M3890 4251 c-72 -32 -1162 -494 -1419 -602 l-165 -69 -401 0 c-424 0
-486 -5 -566 -45 -99 -50 -196 -194 -253 -372 -73 -234 -115 -621 -116 -1066
0 -160 8 -194 54 -236 36 -34 118 -40 163 -12 67 42 67 45 74 366 9 387 38
661 87 815 16 53 17 5 22 -1300 l5 -1355 22 -35 c52 -84 117 -120 216 -120
107 0 191 56 233 155 12 29 14 142 14 705 l0 670 50 0 49 0 3 -678 c3 -672 3
-677 25 -717 48 -90 123 -135 223 -135 100 0 175 45 223 135 l22 40 3 1471 2
1470 38 14 c20 7 129 52 242 100 113 48 390 165 615 260 226 95 416 178 423
183 17 13 15 89 -4 137 -9 23 -14 43 -12 46 3 2 61 28 129 57 103 44 125 57
133 80 8 21 6 31 -9 47 -24 27 -47 25 -125 -9z"/>
</g>
</svg>
