<?xml version="1.0" standalone="no"?>
<!DOCTYPE svg PUBLIC "-//W3C//DTD SVG 20010904//EN"
 "http://www.w3.org/TR/2001/REC-SVG-20010904/DTD/svg10.dtd">
<svg version="1.0" xmlns="http://www.w3.org/2000/svg"
 width="48.000000pt" height="48.000000pt" viewBox="0 0 48.000000 48.000000"
 preserveAspectRatio="xMidYMid meet">

<g transform="translate(0.000000,48.000000) scale(0.100000,-0.100000)"
fill="#000000" stroke="none">
<path d="M177 402 c-10 -10 -17 -28 -17 -40 0 -20 -5 -22 -48 -22 -26 0 -53
-5 -60 -12 -16 -16 -16 -100 0 -116 7 -7 40 -12 80 -12 61 0 68 2 68 20 0 17
7 20 40 20 33 0 40 -3 40 -20 0 -18 7 -20 68 -20 40 0 73 5 80 12 16 16 16
100 0 116 -7 7 -34 12 -60 12 -40 0 -48 3 -48 18 0 53 -106 85 -143 44z m103
-42 c0 -17 -7 -20 -40 -20 -33 0 -40 3 -40 20 0 17 7 20 40 20 33 0 40 -3 40
-20z"/>
<path d="M60 132 c0 -26 5 -53 12 -60 17 -17 319 -17 336 0 7 7 12 34 12 60
l0 48 -70 0 c-40 0 -70 -4 -70 -10 0 -5 -18 -10 -40 -10 -22 0 -40 5 -40 10 0
6 -30 10 -70 10 l-70 0 0 -48z"/>
</g>
</svg>
