<?xml version="1.0" standalone="no"?>
<!DOCTYPE svg PUBLIC "-//W3C//DTD SVG 20010904//EN"
 "http://www.w3.org/TR/2001/REC-SVG-20010904/DTD/svg10.dtd">
<svg version="1.0" xmlns="http://www.w3.org/2000/svg"
 width="500.000000pt" height="500.000000pt" viewBox="0 0 500.000000 500.000000"
 preserveAspectRatio="xMidYMid meet">
<metadata>
Created by potrace 1.16, written by Peter Selinger 2001-2019
</metadata>
<g transform="translate(0.000000,500.000000) scale(0.100000,-0.100000)"
fill="#000000" stroke="none">
<path d="M3413 4595 c-211 -57 -354 -239 -355 -450 -1 -308 271 -528 574 -464
188 40 340 213 362 414 9 78 -13 187 -54 263 -100 189 -327 290 -527 237z"/>
<path d="M2053 3840 c-71 -17 -92 -40 -212 -235 -307 -501 -343 -564 -348
-607 -13 -124 128 -216 244 -161 42 19 63 51 283 416 l155 258 160 -6 c339
-12 416 -17 406 -29 -15 -19 -642 -1049 -662 -1087 -16 -32 -522 -733 -553
-766 -8 -9 -133 -20 -391 -37 -566 -38 -568 -38 -595 -48 -113 -42 -168 -149
-136 -262 20 -67 65 -116 130 -141 45 -17 62 -17 597 18 604 40 607 41 663
108 15 19 111 149 213 289 102 140 191 261 198 269 11 11 71 -8 384 -124 l371
-139 0 -45 c0 -25 11 -252 25 -503 21 -405 26 -461 44 -495 68 -133 228 -162
337 -61 77 71 76 57 43 674 -16 296 -33 565 -38 596 -14 79 -38 125 -83 158
-21 15 -185 83 -368 151 -181 68 -330 126 -330 130 0 10 669 994 678 996 4 1
75 -140 157 -314 170 -357 175 -364 273 -371 56 -4 63 -1 441 180 261 124 395
193 417 215 67 66 65 164 -5 234 -43 43 -107 59 -165 39 -19 -6 -160 -71 -313
-145 -153 -73 -281 -130 -285 -126 -3 3 -66 132 -139 285 -73 154 -143 296
-157 317 -37 56 -294 260 -387 307 -68 34 -145 42 -550 57 -429 16 -456 16
-502 5z"/>
</g>
</svg>
