<?xml version="1.0" standalone="no"?>
<!DOCTYPE svg PUBLIC "-//W3C//DTD SVG 20010904//EN"
 "http://www.w3.org/TR/2001/REC-SVG-20010904/DTD/svg10.dtd">
<svg version="1.0" xmlns="http://www.w3.org/2000/svg"
 width="500.000000pt" height="500.000000pt" viewBox="0 0 500.000000 500.000000"
 preserveAspectRatio="xMidYMid meet">
<metadata>
Created by potrace 1.16, written by Peter Selinger 2001-2019
</metadata>
<g transform="translate(0.000000,500.000000) scale(0.100000,-0.100000)"
fill="#000000" stroke="none">
<path d="M2130 4490 c-94 -16 -135 -42 -520 -329 -219 -163 -292 -210 -460
-299 -133 -70 -136 -71 -154 -29 -15 37 -50 67 -78 67 -45 0 -88 -42 -88 -86
0 -8 120 -328 266 -712 146 -383 403 -1057 571 -1497 422 -1107 378 -1000 417
-1019 19 -9 42 -13 53 -10 35 13 63 47 63 77 0 16 -39 131 -86 256 -284 743
-383 1006 -380 1008 2 2 46 15 97 29 169 45 338 128 480 234 62 47 138 123
322 324 135 146 349 296 444 312 34 5 45 2 62 -15 12 -12 21 -32 21 -44 0 -43
-58 -141 -135 -227 -101 -112 -135 -165 -135 -207 0 -42 38 -83 76 -83 14 0
118 39 231 86 382 159 617 237 840 277 93 17 123 26 123 37 0 25 -135 417
-205 596 -102 260 -175 426 -322 725 -151 309 -134 289 -247 289 -147 -1 -344
-59 -554 -164 -71 -35 -139 -70 -150 -77 -12 -7 -23 -11 -25 -9 -2 3 -33 59
-67 125 -120 227 -171 290 -275 340 -58 27 -122 36 -185 25z m-246 -323 c32
-61 76 -144 97 -184 l39 -71 80 54 c110 74 228 132 318 155 133 34 125 38 216
-116 44 -74 81 -135 83 -135 4 0 -29 83 -39 96 -12 17 125 91 309 168 34 14
68 26 75 26 8 0 52 -76 98 -170 47 -95 91 -170 98 -170 8 0 50 9 95 21 116 30
281 59 289 51 7 -7 178 -379 178 -387 0 -2 -15 -6 -32 -10 -40 -8 -255 -61
-308 -75 l-39 -10 48 -103 c26 -56 65 -147 86 -202 21 -55 39 -102 41 -104 2
-2 61 13 131 33 70 20 153 39 184 43 l57 6 20 -54 c34 -91 122 -362 122 -375
0 -8 -22 -15 -57 -20 -32 -3 -112 -20 -177 -36 -65 -15 -120 -27 -121 -26 -1
2 -14 42 -28 89 -23 75 -119 314 -130 326 -8 7 -211 -74 -322 -129 l-110 -54
-22 23 c-15 15 -34 23 -57 23 -63 0 -265 -121 -405 -243 l-75 -65 -59 152
c-32 83 -72 188 -90 233 l-31 81 -45 -31 c-155 -105 -361 -261 -357 -271 46
-112 141 -365 167 -443 33 -101 33 -103 14 -118 -39 -30 -152 -88 -235 -122
-87 -35 -260 -86 -268 -78 -4 3 -182 464 -182 470 0 2 59 35 132 75 72 39 183
105 246 147 105 70 113 78 107 102 -6 24 -192 451 -200 460 -2 2 -21 -10 -42
-26 -75 -57 -209 -137 -321 -190 -63 -30 -115 -53 -117 -51 -8 7 -175 453
-175 466 0 6 6 12 13 12 34 0 349 167 403 213 l26 23 -86 173 c-48 95 -86 177
-84 181 4 12 361 279 373 279 6 1 36 -50 69 -112z m1396 -1590 c33 -82 60
-153 58 -158 -4 -11 -289 -134 -352 -153 -35 -10 -40 -9 -57 13 -38 47 -22 81
118 241 82 92 143 192 143 234 1 19 2 19 14 -4 8 -14 42 -92 76 -173z"/>
<path d="M1825 3779 c-99 -66 -186 -123 -193 -128 -11 -6 3 -42 60 -157 41
-82 88 -179 104 -216 15 -38 31 -68 34 -68 3 1 93 61 200 134 153 104 194 137
192 152 -7 34 -196 404 -206 403 -6 0 -92 -54 -191 -120z"/>
<path d="M3115 3761 c-66 -26 -157 -66 -203 -89 l-82 -42 -9 23 c-18 47 -115
50 -245 6 -117 -39 -336 -158 -336 -183 0 -19 203 -456 212 -456 5 0 29 14 54
31 120 82 293 139 426 139 l78 0 59 -117 c33 -65 60 -115 60 -112 1 3 -22 59
-50 124 -27 64 -48 123 -45 130 11 31 279 166 358 182 16 3 32 11 34 17 5 13
-172 390 -184 393 -4 0 -61 -20 -127 -46z"/>
</g>
</svg>
