<?xml version="1.0" standalone="no"?>
<!DOCTYPE svg PUBLIC "-//W3C//DTD SVG 20010904//EN"
 "http://www.w3.org/TR/2001/REC-SVG-20010904/DTD/svg10.dtd">
<svg version="1.0" xmlns="http://www.w3.org/2000/svg"
 width="500.000000pt" height="500.000000pt" viewBox="0 0 500.000000 500.000000"
 preserveAspectRatio="xMidYMid meet">
<metadata>
Created by potrace 1.16, written by Peter Selinger 2001-2019
</metadata>
<g transform="translate(0.000000,500.000000) scale(0.100000,-0.100000)"
fill="#000000" stroke="none">
<path d="M2240 4465 c-186 -53 -303 -233 -270 -417 38 -212 233 -347 438 -304
85 18 113 31 174 85 160 141 167 395 14 544 -89 87 -236 125 -356 92z"/>
<path d="M2205 3664 c-5 -1 -22 -5 -37 -8 -38 -9 -95 -61 -120 -110 -11 -23
-73 -101 -137 -174 -242 -278 -268 -312 -280 -355 -13 -53 -45 -598 -37 -641
9 -45 56 -93 106 -106 48 -13 71 -9 117 19 57 36 62 57 78 343 9 145 18 272
21 283 2 11 21 39 42 62 l37 42 3 -1167 c2 -822 6 -1177 14 -1202 48 -152 246
-178 326 -42 l27 47 5 612 5 612 55 -117 c30 -64 82 -176 116 -247 l63 -130
61 -350 c67 -389 77 -421 149 -469 61 -41 109 -44 173 -13 61 30 104 87 113
151 5 29 -13 154 -60 416 -53 301 -71 386 -94 435 -16 33 -93 197 -171 365
-79 168 -151 317 -161 332 -17 23 -19 47 -19 222 0 108 4 196 8 196 5 0 17 -9
26 -19 23 -25 586 -251 626 -251 71 0 133 50 146 117 8 45 -9 103 -39 131 -13
13 -140 69 -281 126 l-257 102 -110 187 -109 187 0 98 c0 60 -6 119 -16 151
-18 62 -80 135 -127 150 -30 9 -240 21 -262 15z"/>
</g>
</svg>
